<svg xmlns="http://www.w3.org/2000/svg" viewBox="0 0 80 80">
  <path d="M40 7C21.785156 7 7 21.785156 7 40C7 58.214844 21.785156 73 40 73C58.214844 73 73 58.214844 73 40C73 21.785156 58.214844 7 40 7 Z M 40 9C57.132813 9 71 22.867188 71 40C71 57.132813 57.132813 71 40 71C22.867188 71 9 57.132813 9 40C9 22.867188 22.867188 9 40 9 Z M 40 12C39.449219 12 39 12.449219 39 13C39 13.550781 39.449219 14 40 14C40.550781 14 41 13.550781 41 13C41 12.449219 40.550781 12 40 12 Z M 34.535156 12.535156C33.996094 12.644531 33.644531 13.171875 33.75 13.714844C33.859375 14.257813 34.386719 14.609375 34.925781 14.5C35.46875 14.390625 35.820313 13.867188 35.714844 13.324219C35.605469 12.78125 35.078125 12.429688 34.535156 12.535156 Z M 45.464844 12.535156C44.921875 12.429688 44.394531 12.78125 44.285156 13.324219C44.179688 13.867188 44.53125 14.390625 45.074219 14.5C45.613281 14.609375 46.140625 14.257813 46.25 13.714844C46.355469 13.171875 46.003906 12.644531 45.464844 12.535156 Z M 29.671875 14.054688C29.542969 14.054688 29.414063 14.078125 29.285156 14.128906C28.773438 14.34375 28.53125 14.925781 28.746094 15.4375C28.957031 15.949219 29.539063 16.191406 30.050781 15.980469C30.5625 15.765625 30.804688 15.183594 30.59375 14.671875C30.433594 14.289063 30.0625 14.058594 29.671875 14.054688 Z M 50.328125 14.054688C49.9375 14.058594 49.566406 14.289063 49.40625 14.671875C49.195313 15.183594 49.4375 15.765625 49.949219 15.980469C50.460938 16.191406 51.042969 15.949219 51.253906 15.4375C51.46875 14.925781 51.226563 14.34375 50.714844 14.128906C50.585938 14.078125 50.457031 14.054688 50.328125 14.054688 Z M 40 16C39.449219 16 39 16.449219 39 17C39 17.550781 39.449219 18 40 18C40.550781 18 41 17.550781 41 17C41 16.449219 40.550781 16 40 16 Z M 24.8125 16.566406C24.683594 16.59375 24.558594 16.640625 24.441406 16.71875C23.984375 17.027344 23.859375 17.644531 24.167969 18.105469C24.476563 18.566406 25.09375 18.691406 25.554688 18.382813C26.015625 18.074219 26.136719 17.453125 25.828125 16.996094C25.601563 16.648438 25.191406 16.496094 24.8125 16.566406 Z M 55.1875 16.566406C54.808594 16.496094 54.398438 16.648438 54.171875 16.996094C53.863281 17.453125 53.984375 18.074219 54.445313 18.382813C54.90625 18.691406 55.523438 18.566406 55.832031 18.105469C56.140625 17.644531 56.015625 17.027344 55.558594 16.71875C55.441406 16.640625 55.316406 16.59375 55.1875 16.566406 Z M 20.90625 19.90625C20.652344 19.90625 20.398438 20.003906 20.203125 20.203125C19.808594 20.59375 19.808594 21.226563 20.203125 21.613281C20.59375 22.007813 21.226563 22.007813 21.613281 21.613281C22.007813 21.222656 22.007813 20.589844 21.613281 20.203125C21.421875 20.003906 21.164063 19.90625 20.90625 19.90625 Z M 59.09375 19.90625C58.835938 19.90625 58.578125 20.003906 58.386719 20.203125C57.992188 20.59375 57.992188 21.226563 58.386719 21.613281C58.777344 22.007813 59.410156 22.007813 59.796875 21.613281C60.191406 21.222656 60.191406 20.589844 59.796875 20.203125C59.601563 20.003906 59.347656 19.90625 59.09375 19.90625 Z M 23.75 22.734375C23.480469 22.730469 23.21875 22.835938 23.03125 23.03125C22.640625 23.417969 22.640625 24.054688 23.03125 24.441406C23.417969 24.832031 24.054688 24.832031 24.441406 24.441406C24.832031 24.054688 24.832031 23.417969 24.441406 23.03125C24.257813 22.84375 24.011719 22.742188 23.75 22.734375 Z M 56.277344 22.734375C56.007813 22.734375 55.746094 22.839844 55.558594 23.03125C55.167969 23.417969 55.167969 24.054688 55.558594 24.441406C55.945313 24.832031 56.582031 24.832031 56.96875 24.441406C57.359375 24.054688 57.359375 23.417969 56.96875 23.03125C56.785156 22.84375 56.539063 22.738281 56.277344 22.734375 Z M 55.558594 24.441406C55.558594 24.441406 46.078125 32.269531 41.332031 36.25C40.914063 36.097656 40.46875 36 40 36C37.800781 36 36 37.800781 36 40C36 42.199219 37.800781 44 40 44C42.199219 44 44 42.199219 44 40C44 39.53125 43.902344 39.085938 43.75 38.667969C47.730469 33.921875 55.558594 24.441406 55.558594 24.441406 Z M 17.738281 24.015625C17.355469 23.945313 16.949219 24.097656 16.71875 24.441406C16.410156 24.902344 16.535156 25.523438 16.996094 25.828125C17.453125 26.136719 18.074219 26.015625 18.382813 25.554688C18.691406 25.09375 18.566406 24.476563 18.105469 24.167969C17.992188 24.089844 17.867188 24.042969 17.738281 24.015625 Z M 62.261719 24.015625C62.132813 24.042969 62.007813 24.089844 61.894531 24.167969C61.433594 24.476563 61.308594 25.09375 61.617188 25.554688C61.925781 26.015625 62.546875 26.136719 63.003906 25.828125C63.464844 25.523438 63.589844 24.902344 63.28125 24.441406C63.050781 24.097656 62.644531 23.945313 62.261719 24.015625 Z M 15.046875 28.667969C14.660156 28.671875 14.289063 28.902344 14.128906 29.285156C13.917969 29.796875 14.160156 30.378906 14.671875 30.59375C15.183594 30.804688 15.765625 30.5625 15.980469 30.050781C16.191406 29.539063 15.949219 28.957031 15.4375 28.746094C15.308594 28.691406 15.179688 28.667969 15.046875 28.667969 Z M 64.953125 28.667969C64.820313 28.667969 64.691406 28.691406 64.5625 28.746094C64.050781 28.957031 63.808594 29.539063 64.019531 30.050781C64.234375 30.5625 64.816406 30.804688 65.328125 30.59375C65.839844 30.378906 66.082031 29.796875 65.871094 29.285156C65.710938 28.902344 65.339844 28.671875 64.953125 28.667969 Z M 13.714844 33.75C13.171875 33.644531 12.644531 33.996094 12.535156 34.535156C12.429688 35.078125 12.78125 35.605469 13.324219 35.714844C13.867188 35.824219 14.390625 35.46875 14.5 34.925781C14.605469 34.386719 14.257813 33.859375 13.714844 33.75 Z M 66.285156 33.75C65.742188 33.859375 65.394531 34.386719 65.5 34.925781C65.609375 35.46875 66.132813 35.820313 66.675781 35.714844C67.21875 35.605469 67.570313 35.078125 67.464844 34.535156C67.355469 33.996094 66.828125 33.644531 66.285156 33.75 Z M 40 38C41.117188 38 42 38.882813 42 40C42 41.117188 41.117188 42 40 42C38.882813 42 38 41.117188 38 40C38 38.882813 38.882813 38 40 38 Z M 13 39C12.449219 39 12 39.449219 12 40C12 40.550781 12.449219 41 13 41C13.550781 41 14 40.550781 14 40C14 39.449219 13.550781 39 13 39 Z M 17 39C16.449219 39 16 39.449219 16 40C16 40.550781 16.449219 41 17 41C17.550781 41 18 40.550781 18 40C18 39.449219 17.550781 39 17 39 Z M 63 39C62.449219 39 62 39.449219 62 40C62 40.550781 62.449219 41 63 41C63.550781 41 64 40.550781 64 40C64 39.449219 63.550781 39 63 39 Z M 67 39C66.449219 39 66 39.449219 66 40C66 40.550781 66.449219 41 67 41C67.550781 41 68 40.550781 68 40C68 39.449219 67.550781 39 67 39 Z M 13.324219 44.285156C12.78125 44.394531 12.429688 44.921875 12.535156 45.464844C12.644531 46.003906 13.171875 46.355469 13.714844 46.25C14.257813 46.140625 14.605469 45.613281 14.5 45.074219C14.390625 44.53125 13.863281 44.179688 13.324219 44.285156 Z M 66.28125 44.285156C65.898438 44.367188 65.582031 44.664063 65.5 45.074219C65.390625 45.613281 65.742188 46.140625 66.285156 46.25C66.828125 46.355469 67.355469 46.003906 67.464844 45.464844C67.570313 44.921875 67.21875 44.394531 66.675781 44.285156C66.539063 44.261719 66.40625 44.261719 66.28125 44.285156 Z M 15.0625 49.332031C14.933594 49.332031 14.800781 49.355469 14.671875 49.40625C14.164063 49.621094 13.921875 50.207031 14.132813 50.71875C14.34375 51.226563 14.929688 51.46875 15.4375 51.257813C15.949219 51.046875 16.191406 50.460938 15.980469 49.949219C15.820313 49.566406 15.453125 49.335938 15.0625 49.332031 Z M 64.9375 49.332031C64.546875 49.335938 64.179688 49.566406 64.019531 49.949219C63.808594 50.460938 64.050781 51.046875 64.5625 51.257813C65.070313 51.46875 65.65625 51.226563 65.867188 50.71875C66.078125 50.207031 65.835938 49.621094 65.328125 49.40625C65.199219 49.355469 65.066406 49.332031 64.9375 49.332031 Z M 17.359375 54.015625C17.234375 54.042969 17.109375 54.09375 16.996094 54.171875C16.535156 54.476563 16.410156 55.097656 16.71875 55.558594C17.027344 56.015625 17.644531 56.140625 18.105469 55.832031C18.566406 55.523438 18.691406 54.90625 18.382813 54.445313C18.152344 54.101563 17.742188 53.945313 17.359375 54.015625 Z M 62.640625 54.015625C62.257813 53.945313 61.847656 54.101563 61.617188 54.445313C61.308594 54.90625 61.433594 55.523438 61.894531 55.832031C62.355469 56.140625 62.972656 56.015625 63.28125 55.558594C63.589844 55.097656 63.464844 54.476563 63.003906 54.171875C62.890625 54.09375 62.765625 54.042969 62.640625 54.015625 Z M 23.75 55.261719C23.480469 55.257813 23.21875 55.363281 23.03125 55.554688C22.640625 55.945313 22.640625 56.578125 23.03125 56.96875C23.417969 57.359375 24.054688 57.359375 24.441406 56.96875C24.832031 56.578125 24.832031 55.945313 24.441406 55.554688C24.257813 55.371094 24.011719 55.265625 23.75 55.261719 Z M 56.277344 55.265625C56.007813 55.257813 55.746094 55.363281 55.554688 55.558594C55.164063 55.945313 55.164063 56.582031 55.554688 56.96875C55.945313 57.359375 56.578125 57.359375 56.96875 56.96875C57.359375 56.582031 57.359375 55.945313 56.96875 55.558594C56.785156 55.371094 56.539063 55.269531 56.277344 55.265625 Z M 20.90625 58.09375C20.652344 58.09375 20.398438 58.1875 20.203125 58.386719C19.808594 58.777344 19.808594 59.410156 20.203125 59.796875C20.59375 60.191406 21.226563 60.191406 21.613281 59.796875C22.007813 59.40625 22.007813 58.773438 21.613281 58.386719C21.421875 58.1875 21.164063 58.09375 20.90625 58.09375 Z M 59.09375 58.09375C58.835938 58.09375 58.578125 58.1875 58.386719 58.386719C57.992188 58.777344 57.992188 59.410156 58.386719 59.796875C58.777344 60.191406 59.410156 60.191406 59.796875 59.796875C60.191406 59.40625 60.191406 58.773438 59.796875 58.386719C59.601563 58.1875 59.347656 58.09375 59.09375 58.09375Z" fill="#979797" />
</svg>