<svg xmlns="http://www.w3.org/2000/svg" viewBox="0 0 26 26">
  <path d="M11 -0.03125C10.164063 -0.03125 9.34375 0.132813 8.75 0.71875C8.15625 1.304688 7.96875 2.136719 7.96875 3L4 3C3.449219 3 3 3.449219 3 4L2 4L2 6L24 6L24 4L23 4C23 3.449219 22.550781 3 22 3L18.03125 3C18.03125 2.136719 17.84375 1.304688 17.25 0.71875C16.65625 0.132813 15.835938 -0.03125 15 -0.03125 Z M 11 2.03125L15 2.03125C15.546875 2.03125 15.71875 2.160156 15.78125 2.21875C15.84375 2.277344 15.96875 2.441406 15.96875 3L10.03125 3C10.03125 2.441406 10.15625 2.277344 10.21875 2.21875C10.28125 2.160156 10.453125 2.03125 11 2.03125 Z M 4 7L4 23C4 24.652344 5.347656 26 7 26L19 26C20.652344 26 22 24.652344 22 23L22 7 Z M 8 10L10 10L10 22L8 22 Z M 12 10L14 10L14 22L12 22 Z M 16 10L18 10L18 22L16 22Z" fill="#979797" />
</svg>