<svg xmlns="http://www.w3.org/2000/svg" viewBox="0 0 50 50">
  <path d="M25 7.65625L24.28125 8.34375L13.40625 19.25C13.109375 19.492188 12.972656 19.878906 13.058594 20.253906C13.144531 20.625 13.4375 20.917969 13.808594 21.003906C14.183594 21.089844 14.570313 20.953125 14.8125 20.65625L24 11.46875L24 41C23.996094 41.359375 24.183594 41.695313 24.496094 41.878906C24.808594 42.058594 25.191406 42.058594 25.503906 41.878906C25.816406 41.695313 26.003906 41.359375 26 41L26 11.46875L35.1875 20.65625C35.429688 20.953125 35.816406 21.089844 36.191406 21.003906C36.5625 20.917969 36.855469 20.625 36.941406 20.253906C37.027344 19.878906 36.890625 19.492188 36.59375 19.25L25.71875 8.34375Z" fill="#979797" />
</svg>